M48
INCH
T01C.031496
;LEADER: 12 
;HEADER: 
;CODE  : ASCII 
;FILE  : MICROPHONEV2_0-1-4.drl for board C:/Users/richi/Desktop/Microphone v2.0/BRD/#Taaaabo03652.tmp ... layers TOP and BOTTOM
;T01 Holesize 1. = 31.496000 Tolerance = +0.000000/-0.000000 PLATED MILS Quantity = 51
%
G90
T01
X0070831Y-0068450
X0052000Y-0057500
X0047000Y-0044642
X0029642Y-0042858
X0015500Y-0046500
X0008500Y-0053736
X0008500Y-0064000
X-0009500Y-0049500
X-0016500Y-0043500
X-0034000Y-0070500
X-0045500Y-0044626
X-0055500Y-0044626
X-0070000Y-0069500
X-0071000Y-0018968
X-0070500Y-0037000
X-0051000Y-0021000
X-0037000Y-0015500
X-0031000Y-0028000
X-0015500Y-0033858
X-0012500Y-0015500
X-0012500Y-0005500
X0005000Y-0025500
X0012000Y-0034150
X0017500Y-0015500
X0017500Y-0005500
X0035000Y-0006500
X0049000Y-0009000
X0051000Y-0022000
X0070500Y-0022500
X0070500Y-0013500
X0069500Y0020203
X0057000Y0037500
X0051858Y0005358
X0035500Y0009000
X0017500Y0014500
X0017500Y0004500
X-0012500Y0014500
X-0012500Y0004500
X-0017500Y0031500
X-0021500Y0023500
X-0038000Y0037000
X-0041000Y0057000
X-0032500Y0055000
X-0013000Y0042532
X-0001500Y0057000
X-0000500Y0041000
X0012000Y0061000
X0024500Y0071000
X0054894Y0071000
X0067747Y0051391
X0071000Y0066500
M30
