G04 ================== begin FILE IDENTIFICATION RECORD ==================*
G04 Layout Name:  C:/Users/richi/Desktop/Microphone v2.0/BRD/MICROPHONEV2_0.brd*
G04 Film Name:    SOLDERMASK_TOP*
G04 File Format:  Gerber RS274X*
G04 File Origin:  Cadence Allegro -unreleased*
G04 Origin Date:  Sun Jul 24 15:15:44 2022*
G04 *
G04 Layer:  BOARD GEOMETRY/DESIGN_OUTLINE*
G04 Layer:  VIA CLASS/SOLDERMASK_TOP*
G04 Layer:  PIN/SOLDERMASK_TOP*
G04 Layer:  PACKAGE GEOMETRY/SOLDERMASK_TOP*
G04 Layer:  BOARD GEOMETRY/SOLDERMASK_TOP*
G04 *
G04 Offset:    (0.000 0.000)*
G04 Mirror:    No*
G04 Mode:      Positive*
G04 Rotation:  0*
G04 FullContactRelief:  No*
G04 UndefLineWidth:     5.000*
G04 ================== end FILE IDENTIFICATION RECORD ====================*
%FSLAX25Y25*MOIN*%
%IR0*IPPOS*OFA0.00000B0.00000*MIA0B0*SFA1.00000B1.00000*%
%ADD27R,.090551X.122047*%
%ADD23R,.059055X.102362*%
%ADD14R,.232283X.232283*%
%ADD15C,.051181*%
%ADD12R,.023622X.023622*%
%ADD26O,.053937X.024016*%
%ADD11R,.051181X.051181*%
%ADD28R,.035433X.035433*%
%ADD24R,.035433X.03937*%
%ADD17C,.082677*%
%ADD13R,.051181X.082677*%
%ADD10C,.066929*%
%ADD18R,.082677X.051181*%
%ADD16R,.015748X.025591*%
%ADD20R,.025591X.015748*%
%ADD19R,.038937X.030945*%
%ADD22R,.094488X.035433*%
%ADD21R,.066929X.066929*%
%ADD25R,.064961X.027559*%
%ADD29C,.005*%
G75*
%LPD*%
G75*
G54D10*
X-70500Y-37000D03*
X-71000Y-18968D03*
X-70000Y-69500D03*
X-51000Y-21000D03*
X-41000Y57000D03*
X-34000Y-70500D03*
X-31000Y-28000D03*
X-37000Y-15500D03*
X-38000Y37000D03*
X-32500Y55000D03*
X-21500Y23500D03*
X-9500Y-49500D03*
X-16500Y-43500D03*
X-15500Y-33858D03*
X-17500Y31500D03*
X-13000Y42532D03*
X-500Y41000D03*
X-1500Y57000D03*
X8500Y-64000D03*
Y-53736D03*
X12000Y-34150D03*
X5000Y-25500D03*
X12000Y61000D03*
X15500Y-46500D03*
X29642Y-42858D03*
X24500Y71000D03*
X35000Y-6500D03*
X35500Y9000D03*
X52000Y-57500D03*
X47000Y-44642D03*
X51000Y-22000D03*
X49000Y-9000D03*
X51858Y5358D03*
X54894Y71000D03*
X57000Y37500D03*
X70831Y-68450D03*
X70500Y-22500D03*
Y-13500D03*
X69500Y20203D03*
X67747Y51391D03*
X71000Y66500D03*
G54D20*
X-5000Y50378D03*
Y47622D03*
X-6000Y65122D03*
Y67878D03*
G54D11*
X-64858Y-28000D03*
X-57142D03*
X-58000Y-10642D03*
Y-18358D03*
X-46358Y-28000D03*
X-38642D03*
X-31858Y-7500D03*
Y3000D03*
X-35858Y14500D03*
X-23500Y-25858D03*
Y-18142D03*
X-24142Y-7500D03*
Y3000D03*
X-28142Y14500D03*
X-10858Y-25500D03*
X-10000Y26642D03*
Y34358D03*
X-17000Y59642D03*
Y67358D03*
X858Y-59000D03*
X-6858D03*
X-3142Y-25500D03*
X413Y33937D03*
Y26063D03*
X6500Y47642D03*
Y55358D03*
X23358Y-26500D03*
X15642D03*
X19000Y55142D03*
Y62858D03*
X28500Y-2858D03*
Y4858D03*
X31000Y59142D03*
Y66858D03*
X37500Y-42858D03*
Y-35142D03*
X38000Y-22858D03*
Y-15142D03*
X43000Y-2358D03*
Y5358D03*
X45142Y44000D03*
X52858D03*
X59142Y13500D03*
X58642Y26000D03*
X66858Y13500D03*
X66358Y26000D03*
G54D21*
X13406Y30000D03*
G54D12*
X-67000Y-14969D03*
Y-11032D03*
X-20968Y38500D03*
X-17032D03*
G54D22*
X17716Y-60000D03*
X32284D03*
X50716Y-36000D03*
X65284D03*
G54D13*
X-65496Y1433D03*
X-47504D03*
G54D14*
X-56500Y27417D03*
X-57917Y57000D03*
G54D23*
X31413Y23500D03*
X45587D03*
G54D24*
X24366Y42000D03*
X32634D03*
G54D15*
X-55500Y-44626D03*
X-45500D03*
X-12500Y-15500D03*
Y-5500D03*
Y4500D03*
Y14500D03*
X17500Y-15500D03*
Y-5500D03*
Y4500D03*
Y14500D03*
G54D25*
X42870Y-67500D03*
Y-62500D03*
Y-57500D03*
Y-52500D03*
X64130Y-62500D03*
Y-67500D03*
Y-52500D03*
Y-57500D03*
G54D16*
X-42122Y-20000D03*
X-44878D03*
X19622Y-41500D03*
X22378D03*
X64122Y34500D03*
X66878D03*
G54D17*
X-46500Y-10000D03*
X-32000Y29000D03*
X-20500Y-56500D03*
X-26500Y-38500D03*
X6500Y66500D03*
X61000Y-15500D03*
X64000Y44000D03*
G54D26*
X41083Y53339D03*
Y58500D03*
Y63500D03*
Y68500D03*
X63917Y53500D03*
Y63500D03*
Y58500D03*
Y68500D03*
G54D18*
X-31933Y48004D03*
Y65996D03*
G54D27*
X52500Y61000D03*
G54D19*
X-3000Y-46250D03*
Y-42500D03*
Y-38750D03*
X7000Y-46250D03*
Y-38750D03*
G54D28*
X61244Y-500D03*
X66756D03*
G54D29*
G01X-74803Y-74803D02*
Y74803D01*
X74803D01*
Y-74803D01*
X-74803D01*
M02*
