G04 ================== begin FILE IDENTIFICATION RECORD ==================*
G04 Layout Name:  C:/Users/richi/Desktop/Microphone v2.0/BRD/MICROPHONEV2_0.brd*
G04 Film Name:    TOP*
G04 File Format:  Gerber RS274X*
G04 File Origin:  Cadence Allegro -unreleased*
G04 Origin Date:  Sun Jul 24 15:15:44 2022*
G04 *
G04 Layer:  BOARD GEOMETRY/DESIGN_OUTLINE*
G04 Layer:  ETCH/TOP*
G04 Layer:  PIN/TOP*
G04 Layer:  VIA CLASS/TOP*
G04 *
G04 Offset:    (0.000 0.000)*
G04 Mirror:    No*
G04 Mode:      Positive*
G04 Rotation:  0*
G04 FullContactRelief:  No*
G04 UndefLineWidth:     5.000*
G04 ================== end FILE IDENTIFICATION RECORD ====================*
%FSLAX25Y25*MOIN*%
%IR0*IPPOS*OFA0.00000B0.00000*MIA0B0*SFA1.00000B1.00000*%
%ADD27R,.086614X.11811*%
%ADD14R,.228346X.228346*%
%ADD26O,.05X.020079*%
%ADD19R,.035X.027008*%
%ADD25R,.061024X.023622*%
%ADD16R,.011811X.021654*%
%ADD20R,.021654X.011811*%
%ADD15C,.047244*%
%ADD17C,.07874*%
%ADD24R,.031496X.035433*%
%ADD11R,.047244X.047244*%
%ADD10C,.062992*%
%ADD28R,.031496X.031496*%
%ADD22R,.090551X.031496*%
%ADD13R,.047244X.07874*%
%ADD18R,.07874X.047244*%
%ADD23R,.055118X.098425*%
%ADD21R,.062992X.062992*%
%ADD12R,.019685X.019685*%
%ADD29C,.012*%
%ADD30C,.024*%
%ADD31C,.018*%
%ADD32C,.005*%
G75*
%LPD*%
G75*
G54D10*
X-70500Y-37000D03*
X-71000Y-18968D03*
X-70000Y-69500D03*
X-51000Y-21000D03*
X-41000Y57000D03*
X-34000Y-70500D03*
X-31000Y-28000D03*
X-37000Y-15500D03*
X-38000Y37000D03*
X-32500Y55000D03*
X-21500Y23500D03*
X-9500Y-49500D03*
X-16500Y-43500D03*
X-15500Y-33858D03*
X-17500Y31500D03*
X-13000Y42532D03*
X-500Y41000D03*
X-1500Y57000D03*
X8500Y-64000D03*
Y-53736D03*
X12000Y-34150D03*
X5000Y-25500D03*
X12000Y61000D03*
X15500Y-46500D03*
X29642Y-42858D03*
X24500Y71000D03*
X35000Y-6500D03*
X35500Y9000D03*
X52000Y-57500D03*
X47000Y-44642D03*
X51000Y-22000D03*
X49000Y-9000D03*
X51858Y5358D03*
X54894Y71000D03*
X57000Y37500D03*
X70831Y-68450D03*
X70500Y-22500D03*
Y-13500D03*
X69500Y20203D03*
X67747Y51391D03*
X71000Y66500D03*
G54D11*
X-64858Y-28000D03*
X-57142D03*
X-58000Y-10642D03*
Y-18358D03*
X-46358Y-28000D03*
X-38642D03*
X-31858Y-7500D03*
Y3000D03*
X-35858Y14500D03*
X-23500Y-25858D03*
Y-18142D03*
X-24142Y-7500D03*
Y3000D03*
X-28142Y14500D03*
X-10858Y-25500D03*
X-10000Y26642D03*
Y34358D03*
X-17000Y59642D03*
Y67358D03*
X858Y-59000D03*
X-6858D03*
X-3142Y-25500D03*
X413Y33937D03*
Y26063D03*
X6500Y47642D03*
Y55358D03*
X23358Y-26500D03*
X15642D03*
X19000Y55142D03*
Y62858D03*
X28500Y-2858D03*
Y4858D03*
X31000Y59142D03*
Y66858D03*
X37500Y-42858D03*
Y-35142D03*
X38000Y-22858D03*
Y-15142D03*
X43000Y-2358D03*
Y5358D03*
X45142Y44000D03*
X52858D03*
X59142Y13500D03*
X58642Y26000D03*
X66858Y13500D03*
X66358Y26000D03*
G54D20*
X-5000Y50378D03*
Y47622D03*
X-6000Y65122D03*
Y67878D03*
G54D30*
G01X-64858Y-28000D02*
Y-22858D01*
X-63000Y-21000D01*
Y-15642D01*
X-58000Y-10642D01*
G01X-67000Y-14969D02*
X-71000Y-18968D01*
G01X-65496Y1433D02*
Y-6843D01*
X-67000Y-8347D01*
Y-11032D01*
G01X-32000Y29000D02*
X-41000Y20000D01*
Y14000D01*
X-45000Y10000D01*
X-58504D01*
X-65496Y3008D01*
Y1433D01*
G01X-58000Y-18358D02*
X-53642D01*
X-51000Y-21000D01*
G01X-58000Y-10642D02*
X-53938D01*
X-53296Y-10000D01*
X-46500D01*
G01X-56500Y27417D02*
X-51583D01*
X-42000Y37000D01*
X-38000D01*
G01X-57917Y57000D02*
X-41000D01*
G01X-47504Y1433D02*
Y-8996D01*
X-46500Y-10000D01*
G01X-37000Y-1500D02*
Y-15500D01*
G01X-31858Y3000D02*
X-32500D01*
X-37000Y-1500D01*
G01D02*
Y9296D01*
X-35858Y10438D01*
Y14500D01*
G01X-32000Y29000D02*
X-27500Y33500D01*
Y38500D01*
G01X-31933Y48004D02*
Y42933D01*
X-27500Y38500D01*
G01X-17000Y67358D02*
X-21062D01*
X-22424Y65996D01*
X-31933D01*
G01X-20500Y-56500D02*
Y-47500D01*
X-16500Y-43500D01*
G01X-6858Y-59000D02*
X-12363D01*
X-14863Y-56500D01*
X-20500D01*
G01X-23500Y-25858D02*
X-15500Y-33858D01*
G01X-20968Y38500D02*
X-27500D01*
G01X-16500Y-43500D02*
X-8000Y-35000D01*
Y-31000D01*
X-10858Y-28142D01*
Y-25500D01*
G01X-3000Y-42500D02*
X-10650D01*
X-11650Y-43500D01*
X-16500D01*
G01X-12500Y-15500D02*
Y-19796D01*
X-10858Y-21438D01*
Y-25500D01*
G01X-10000Y26642D02*
Y22580D01*
X-12500Y20080D01*
Y14500D01*
G01X413Y33937D02*
X-5516D01*
X-5938Y34358D01*
X-10000D01*
G01X8500Y-64000D02*
X5858D01*
X858Y-59000D01*
G01X-3142Y-25500D02*
X5000D01*
G01X413Y26063D02*
X5937D01*
X17500Y14500D01*
G01X13406Y30000D02*
X4350D01*
X413Y33937D01*
G01X-1500Y57000D02*
X142Y55358D01*
X6500D01*
G01X17716Y-60000D02*
X14764D01*
X8500Y-53736D01*
G01X7000Y-38750D02*
X7400D01*
X12000Y-34150D01*
G01X6500Y47642D02*
X14000Y55142D01*
X19000D01*
G01X6500Y66500D02*
X12000Y61000D01*
G01X32284Y-60000D02*
X29331D01*
X26554Y-57223D01*
X26223D01*
X21500Y-52500D01*
G01D02*
X15500Y-46500D01*
G01X42870Y-52500D02*
X21500D01*
G01X28500Y-2858D02*
X24014Y1627D01*
X20372D01*
X17500Y4500D01*
G01X24366Y42000D02*
Y49776D01*
X19000Y55142D01*
G01X31000Y59142D02*
X26938D01*
X23221Y62858D01*
X19000D01*
G01X37500Y-42858D02*
X29642D01*
G01X35000Y-6500D02*
Y-5296D01*
X32562Y-2858D01*
X28500D01*
G01X35500Y9000D02*
X32642D01*
X28500Y4858D01*
G01X31413Y23500D02*
Y30121D01*
X32634Y31342D01*
Y42000D01*
G01X41083Y53339D02*
X36839D01*
X32634Y49134D01*
Y42000D01*
G01X41083Y63500D02*
X39587D01*
X35228Y59142D01*
X31000D01*
G01X24500Y71000D02*
X26858D01*
X31000Y66858D01*
G01D02*
X35062D01*
X36704Y68500D01*
X41083D01*
G01X42870Y-67500D02*
X64130D01*
G01X42870Y-57500D02*
X52000D01*
G01X37500Y-35142D02*
X47000Y-44642D01*
G01X43000Y5358D02*
X51858D01*
G01X64130Y-57500D02*
X52000D01*
G01X64130Y-52500D02*
Y-46461D01*
X53669Y-36000D01*
X50716D01*
G01X51858Y5358D02*
X55577Y9077D01*
Y9936D01*
X59142Y13500D01*
G01X45587Y23500D02*
X50500D01*
X54000Y20000D01*
X60358D01*
X66858Y13500D01*
G01X52858Y32937D02*
X45587Y25665D01*
Y23500D01*
G01X52858Y32937D02*
X49294Y36501D01*
Y40436D01*
X52858Y44000D01*
G01X52500Y61000D02*
Y51358D01*
X45142Y44000D01*
G01X64000D02*
X52858D01*
G01X63917Y63500D02*
X62421D01*
X59000Y60079D01*
Y50142D01*
X52858Y44000D01*
G01X54894Y71000D02*
X52500Y68606D01*
Y61000D01*
G01X70831Y-68450D02*
X67550D01*
X66600Y-67500D01*
X64130D01*
G01Y-62500D02*
X68881D01*
X71509Y-59872D01*
Y-45500D01*
X65284Y-39275D01*
Y-36000D01*
G01X58642Y26000D02*
Y26642D01*
X63000Y31000D01*
X69000D01*
X73296Y35296D01*
Y55704D01*
X70500Y58500D01*
X63917D01*
G01Y68500D02*
Y63500D01*
G01X66858Y13500D02*
Y2877D01*
X66756Y2775D01*
Y-500D01*
G01X69500Y20203D02*
Y22858D01*
X66358Y26000D01*
G54D12*
X-67000Y-14969D03*
Y-11032D03*
X-20968Y38500D03*
X-17032D03*
G54D21*
X13406Y30000D03*
G54D31*
G01X-37000Y-15500D02*
X-38114D01*
X-42122Y-19508D01*
Y-20000D01*
G01X-44878D02*
Y-17517D01*
X-46500Y-15895D01*
Y-10000D01*
G01X-5000Y50378D02*
X-16122D01*
X-18496Y48004D01*
X-31933D01*
G01X-9500Y-49500D02*
X-6250Y-46250D01*
X-3000D01*
G01X-17032Y38500D02*
X-13000Y42532D01*
G01X-17000Y59642D02*
X-7858D01*
X-6000Y61500D01*
G01Y67878D02*
X-8483D01*
X-9002Y67358D01*
X-17000D01*
G01X-500Y41000D02*
X-5000Y45500D01*
Y47622D01*
G01Y50378D02*
X-2517D01*
X219Y47642D01*
X6500D01*
G01X-1500Y57000D02*
X-6000Y61500D01*
G01D02*
Y65122D01*
G01X6500Y66500D02*
X1163D01*
X-215Y67878D01*
X-6000D01*
G01X19622Y-41500D02*
Y-43983D01*
X17105Y-46500D01*
X15500D01*
G01X29642Y-42858D02*
X28283Y-41500D01*
X22378D01*
G01X63917Y53500D02*
X65413D01*
X67522Y51391D01*
X67747D01*
G54D13*
X-65496Y1433D03*
X-47504D03*
G54D22*
X17716Y-60000D03*
X32284D03*
X50716Y-36000D03*
X65284D03*
G54D32*
G01X-74803Y-74803D02*
Y74803D01*
X74803D01*
Y-74803D01*
X-74803D01*
G54D23*
X31413Y23500D03*
X45587D03*
G54D14*
X-56500Y27417D03*
X-57917Y57000D03*
G54D24*
X24366Y42000D03*
X32634D03*
G54D15*
X-55500Y-44626D03*
X-45500D03*
X-12500Y-15500D03*
Y-5500D03*
Y4500D03*
Y14500D03*
X17500Y-15500D03*
Y-5500D03*
Y4500D03*
Y14500D03*
G54D16*
X-42122Y-20000D03*
X-44878D03*
X19622Y-41500D03*
X22378D03*
X64122Y34500D03*
X66878D03*
G54D25*
X42870Y-67500D03*
Y-62500D03*
Y-57500D03*
Y-52500D03*
X64130Y-62500D03*
Y-67500D03*
Y-52500D03*
Y-57500D03*
G54D17*
X-46500Y-10000D03*
X-32000Y29000D03*
X-20500Y-56500D03*
X-26500Y-38500D03*
X6500Y66500D03*
X61000Y-15500D03*
X64000Y44000D03*
G54D26*
X41083Y53339D03*
Y58500D03*
Y63500D03*
Y68500D03*
X63917Y53500D03*
Y63500D03*
Y58500D03*
Y68500D03*
G54D18*
X-31933Y48004D03*
Y65996D03*
G54D27*
X52500Y61000D03*
G54D28*
X61244Y-500D03*
X66756D03*
G54D19*
X-3000Y-46250D03*
Y-42500D03*
Y-38750D03*
X7000Y-46250D03*
Y-38750D03*
G54D29*
G01X-57142Y-28000D02*
X-46358D01*
G01D02*
Y-36142D01*
X-45500Y-37000D01*
Y-44626D01*
G01X-26500Y-38500D02*
X-28142D01*
X-38642Y-28000D01*
G01X-31858Y-7500D02*
Y-21217D01*
X-38642Y-28000D01*
G01X-23500Y-18142D02*
Y-13000D01*
X-24142Y-12358D01*
Y-7500D01*
G01D02*
X-17962D01*
X-15962Y-5500D01*
X-12500D01*
G01X-28142Y14500D02*
X-24142Y10500D01*
Y3000D01*
G01D02*
X-17462D01*
X-15962Y4500D01*
X-12500D01*
G01X-3000Y-38750D02*
X-70D01*
X12180Y-26500D01*
X15642D01*
G01X7000Y-46250D02*
X7400D01*
X23358Y-30291D01*
Y-26500D01*
G01X15642D02*
Y-20821D01*
X17500Y-18962D01*
Y-15500D01*
G01X38000Y-15142D02*
X27142D01*
X17500Y-5500D01*
G01X23358Y-26500D02*
X34358D01*
X38000Y-22858D01*
G01X61000Y-15500D02*
X55963D01*
X55605Y-15142D01*
X38000D01*
G01X43000Y-2358D02*
X51642D01*
X53500Y-500D01*
X61244D01*
G01X64122Y34500D02*
X62431D01*
X58931Y31000D01*
X54795D01*
X52858Y32937D01*
G01X66878Y34500D02*
Y35397D01*
X64775Y37500D01*
X57000D01*
M02*
